<svg width="3038" height="325" viewBox="0 0 3038 325" fill="none" xmlns="http://www.w3.org/2000/svg">
<g clip-path="url(#clip0_431_2018)">
<mask id="path-1-outside-1_431_2018" maskUnits="userSpaceOnUse" x="10" y="0" width="1852" height="341" fill="black">
<rect fill="white" x="10" width="1852" height="341"/>
<path d="M366.96 328H173.8C84.48 328 18.48 257.6 18.48 164.76C18.48 70.6 84.48 8.11997 173.8 8.11997H347.16V64H173.8C116.6 64 74.36 106.68 74.36 167.4C74.36 227.68 116.16 272.12 173.8 272.12H310.64V188.96H166.32V141.88H366.96V328ZM704.306 186.76V8.11997H758.866V186.76C758.866 285.76 710.026 332.4 585.946 332.4C462.746 332.4 413.466 285.76 413.466 186.76V8.11997H471.106V186.76C471.106 251 499.706 277.4 587.706 277.4C675.706 277.4 704.306 251 704.306 186.76ZM1049.12 328H809.322V272.12H1049.12C1079.04 272.12 1095.76 255.4 1095.76 230.32C1095.76 203.04 1079.04 188.96 1049.12 188.96H902.162C841.882 188.96 804.482 150.68 804.482 97.88C804.482 46.4 839.242 8.11997 903.042 8.11997H1132.72V64H903.042C877.522 64 862.562 78.96 862.562 103.16C862.562 127.36 877.962 141.88 902.602 141.88H1049.12C1113.8 141.88 1148.56 172.24 1148.56 234.28C1148.56 287.96 1116 328 1049.12 328ZM1354.87 328H1298.99V64H1177.55V8.11997H1476.31V64H1354.87V328ZM1799.15 186.76V8.11997H1853.71V186.76C1853.71 285.76 1804.87 332.4 1680.79 332.4C1557.59 332.4 1508.31 285.76 1508.31 186.76V8.11997H1565.95V186.76C1565.95 251 1594.55 277.4 1682.55 277.4C1770.55 277.4 1799.15 251 1799.15 186.76Z"/>
</mask>
<path d="M366.96 328V336H374.96V328H366.96ZM347.16 8.11997H355.16V0.119975H347.16V8.11997ZM347.16 64V72H355.16V64H347.16ZM310.64 272.12V280.12H318.64V272.12H310.64ZM310.64 188.96H318.64V180.96H310.64V188.96ZM166.32 188.96H158.32V196.96H166.32V188.96ZM166.32 141.88V133.88H158.32V141.88H166.32ZM366.96 141.88H374.96V133.88H366.96V141.88ZM366.96 320H173.8V336H366.96V320ZM173.8 320C89.3011 320 26.48 253.596 26.48 164.76H10.48C10.48 261.604 79.6589 336 173.8 336V320ZM26.48 164.76C26.48 119.612 42.2648 82.5652 68.2735 56.815C94.2998 31.0475 131.041 16.12 173.8 16.12V0.119975C127.239 0.119975 86.3202 16.4325 57.0165 45.4449C27.6952 74.4747 10.48 115.748 10.48 164.76H26.48ZM173.8 16.12H347.16V0.119975H173.8V16.12ZM339.16 8.11997V64H355.16V8.11997H339.16ZM347.16 56H173.8V72H347.16V56ZM173.8 56C111.953 56 66.36 102.494 66.36 167.4H82.36C82.36 110.866 121.247 72 173.8 72V56ZM66.36 167.4C66.36 231.681 111.336 280.12 173.8 280.12V264.12C120.984 264.12 82.36 223.679 82.36 167.4H66.36ZM173.8 280.12H310.64V264.12H173.8V280.12ZM318.64 272.12V188.96H302.64V272.12H318.64ZM310.64 180.96H166.32V196.96H310.64V180.96ZM174.32 188.96V141.88H158.32V188.96H174.32ZM166.32 149.88H366.96V133.88H166.32V149.88ZM358.96 141.88V328H374.96V141.88H358.96ZM704.306 8.11997V0.119975H696.306V8.11997H704.306ZM758.866 8.11997H766.866V0.119975H758.866V8.11997ZM413.466 8.11997V0.119975H405.466V8.11997H413.466ZM471.106 8.11997H479.106V0.119975H471.106V8.11997ZM712.306 186.76V8.11997H696.306V186.76H712.306ZM704.306 16.12H758.866V0.119975H704.306V16.12ZM750.866 8.11997V186.76H766.866V8.11997H750.866ZM750.866 186.76C750.866 235.043 738.973 268.743 713.695 290.661C688.139 312.819 647.273 324.4 585.946 324.4V340.4C648.699 340.4 694.292 328.661 724.177 302.749C754.338 276.597 766.866 237.477 766.866 186.76H750.866ZM585.946 324.4C525.072 324.4 484.308 312.824 458.747 290.661C433.459 268.734 421.466 235.024 421.466 186.76H405.466C405.466 237.496 418.113 276.606 448.265 302.749C478.143 328.656 523.62 340.4 585.946 340.4V324.4ZM421.466 186.76V8.11997H405.466V186.76H421.466ZM413.466 16.12H471.106V0.119975H413.466V16.12ZM463.106 8.11997V186.76H479.106V8.11997H463.106ZM463.106 186.76C463.106 219.891 470.476 245.544 491.385 262.398C511.786 278.843 543.346 285.4 587.706 285.4V269.4C544.065 269.4 517.326 262.757 501.426 249.942C486.036 237.536 479.106 217.869 479.106 186.76H463.106ZM587.706 285.4C632.065 285.4 663.626 278.843 684.026 262.398C704.936 245.544 712.306 219.891 712.306 186.76H696.306C696.306 217.869 689.376 237.536 673.985 249.942C658.086 262.757 631.346 269.4 587.706 269.4V285.4ZM809.322 328H801.322V336H809.322V328ZM809.322 272.12V264.12H801.322V272.12H809.322ZM1132.72 8.11997H1140.72V0.119975H1132.72V8.11997ZM1132.72 64V72H1140.72V64H1132.72ZM1049.12 320H809.322V336H1049.12V320ZM817.322 328V272.12H801.322V328H817.322ZM809.322 280.12H1049.12V264.12H809.322V280.12ZM1049.12 280.12C1065.54 280.12 1079.33 275.517 1089.09 266.502C1098.92 257.425 1103.76 244.7 1103.76 230.32H1087.76C1087.76 241.02 1084.25 249.195 1078.23 254.748C1072.15 260.363 1062.62 264.12 1049.12 264.12V280.12ZM1103.76 230.32C1103.76 214.992 1099 202.203 1088.93 193.389C1079.04 184.733 1065.2 180.96 1049.12 180.96V196.96C1062.96 196.96 1072.45 200.227 1078.39 205.431C1084.16 210.477 1087.76 218.368 1087.76 230.32H1103.76ZM1049.12 180.96H902.162V196.96H1049.12V180.96ZM902.162 180.96C873.738 180.96 851.414 171.964 836.25 157.442C821.101 142.935 812.482 122.332 812.482 97.88H796.482C796.482 126.228 806.562 151.165 825.183 168.998C843.789 186.816 870.305 196.96 902.162 196.96V180.96ZM812.482 97.88C812.482 73.9785 820.513 53.7415 835.378 39.4649C850.255 25.1774 872.753 16.12 903.042 16.12V0.119975C869.53 0.119975 842.748 10.2025 824.295 27.925C805.83 45.6585 796.482 70.3015 796.482 97.88H812.482ZM903.042 16.12H1132.72V0.119975H903.042V16.12ZM1124.72 8.11997V64H1140.72V8.11997H1124.72ZM1132.72 56H903.042V72H1132.72V56ZM903.042 56C888.727 56 876.411 60.2219 867.643 68.7804C858.855 77.3596 854.562 89.3911 854.562 103.16H870.562C870.562 92.7289 873.748 85.1804 878.82 80.2296C883.913 75.2581 891.836 72 903.042 72V56ZM854.562 103.16C854.562 116.999 859.009 128.922 867.8 137.365C876.551 145.768 888.724 149.88 902.602 149.88V133.88C891.839 133.88 883.993 130.732 878.883 125.825C873.814 120.958 870.562 113.521 870.562 103.16H854.562ZM902.602 149.88H1049.12V133.88H902.602V149.88ZM1049.12 149.88C1080.35 149.88 1102.94 157.219 1117.7 170.718C1132.32 184.098 1140.56 204.739 1140.56 234.28H1156.56C1156.56 201.781 1147.42 176.222 1128.5 158.912C1109.7 141.721 1082.58 133.88 1049.12 133.88V149.88ZM1140.56 234.28C1140.56 259.52 1132.93 280.752 1118.23 295.651C1103.56 310.513 1080.94 320 1049.12 320V336C1084.18 336 1111.28 325.467 1129.62 306.889C1147.91 288.348 1156.56 262.72 1156.56 234.28H1140.56ZM1354.87 328V336H1362.87V328H1354.87ZM1298.99 328H1290.99V336H1298.99V328ZM1298.99 64H1306.99V56H1298.99V64ZM1177.55 64H1169.55V72H1177.55V64ZM1177.55 8.11997V0.119975H1169.55V8.11997H1177.55ZM1476.31 8.11997H1484.31V0.119975H1476.31V8.11997ZM1476.31 64V72H1484.31V64H1476.31ZM1354.87 64V56H1346.87V64H1354.87ZM1354.87 320H1298.99V336H1354.87V320ZM1306.99 328V64H1290.99V328H1306.99ZM1298.99 56H1177.55V72H1298.99V56ZM1185.55 64V8.11997H1169.55V64H1185.55ZM1177.55 16.12H1476.31V0.119975H1177.55V16.12ZM1468.31 8.11997V64H1484.31V8.11997H1468.31ZM1476.31 56H1354.87V72H1476.31V56ZM1346.87 64V328H1362.87V64H1346.87ZM1799.15 8.11997V0.119975H1791.15V8.11997H1799.15ZM1853.71 8.11997H1861.71V0.119975H1853.71V8.11997ZM1508.31 8.11997V0.119975H1500.31V8.11997H1508.31ZM1565.95 8.11997H1573.95V0.119975H1565.95V8.11997ZM1807.15 186.76V8.11997H1791.15V186.76H1807.15ZM1799.15 16.12H1853.71V0.119975H1799.15V16.12ZM1845.71 8.11997V186.76H1861.71V8.11997H1845.71ZM1845.71 186.76C1845.71 235.043 1833.82 268.743 1808.54 290.661C1782.98 312.819 1742.12 324.4 1680.79 324.4V340.4C1743.54 340.4 1789.14 328.661 1819.02 302.749C1849.18 276.597 1861.71 237.477 1861.71 186.76H1845.71ZM1680.79 324.4C1619.92 324.4 1579.15 312.824 1553.59 290.661C1528.3 268.734 1516.31 235.024 1516.31 186.76H1500.31C1500.31 237.496 1512.96 276.606 1543.11 302.749C1572.99 328.656 1618.46 340.4 1680.79 340.4V324.4ZM1516.31 186.76V8.11997H1500.31V186.76H1516.31ZM1508.31 16.12H1565.95V0.119975H1508.31V16.12ZM1557.95 8.11997V186.76H1573.95V8.11997H1557.95ZM1557.95 186.76C1557.95 219.891 1565.32 245.544 1586.23 262.398C1606.63 278.843 1638.19 285.4 1682.55 285.4V269.4C1638.91 269.4 1612.17 262.757 1596.27 249.942C1580.88 237.536 1573.95 217.869 1573.95 186.76H1557.95ZM1682.55 285.4C1726.91 285.4 1758.47 278.843 1778.87 262.398C1799.78 245.544 1807.15 219.891 1807.15 186.76H1791.15C1791.15 217.869 1784.22 237.536 1768.83 249.942C1752.93 262.757 1726.19 269.4 1682.55 269.4V285.4Z" fill="url(#paint0_linear_431_2018)" mask="url(#path-1-outside-1_431_2018)"/>
<mask id="path-3-outside-2_431_2018" maskUnits="userSpaceOnUse" x="1895" y="180" width="1143" height="154" fill="black">
<rect fill="white" x="1895" y="180" width="1143" height="154"/>
<path d="M2001.8 289.6H1943.4V265H2001.8C2019.6 265 2030.2 253.8 2030.2 237.4C2030.2 220.6 2019.6 210 2001.8 210H1924.8V330H1899.6V184.6H2001.8C2035.4 184.6 2055 204.8 2055 236.6C2055 268 2035.4 289.6 2001.8 289.6ZM2244.04 330H2208.04L2171.24 289.6H2116.84V267.2H2177.44C2195.64 267.2 2205.24 256.8 2205.24 238C2205.24 219.2 2194.84 210 2177.44 210H2098.24V330H2073.04V184.6H2177.44C2210.64 184.6 2230.24 205.2 2230.24 237.6C2230.24 261.6 2219.04 278.6 2200.24 285.8L2244.04 330ZM2355.7 330H2320.3C2279.7 330 2249.7 298 2249.7 255.8C2249.7 213 2279.7 184.6 2320.3 184.6H2355.7C2397.7 184.6 2426.9 213.6 2426.9 255.8C2426.9 298 2397.1 330 2355.7 330ZM2320.3 304.6H2355.7C2382.5 304.6 2401.5 284.4 2401.5 257C2401.5 229.6 2382.5 210 2355.7 210H2320.3C2294.3 210 2275.1 229.4 2275.1 257C2275.1 284.4 2294.1 304.6 2320.3 304.6ZM2492.85 330H2439.65V304.6H2492.85C2526.85 304.6 2540.65 292 2540.65 263.8V184.6H2566.05V263.8C2566.05 308.8 2543.45 330 2492.85 330ZM2719.05 330H2589.05V184.6H2718.85V210H2614.25V304.6H2719.05V330ZM2713.45 266.8H2632.85V245.4H2713.45V266.8ZM2886.01 330H2807.21C2766.61 330 2736.61 298 2736.61 255.8C2736.61 213 2766.61 184.6 2807.21 184.6H2886.01V210H2807.21C2781.21 210 2762.01 229.4 2762.01 257C2762.01 284.4 2781.01 304.6 2807.21 304.6H2886.01V330ZM2978.63 330H2953.23V210H2898.03V184.6H3033.83V210H2978.63V330Z"/>
</mask>
<path d="M1943.4 289.6H1939.4V293.6H1943.4V289.6ZM1943.4 265V261H1939.4V265H1943.4ZM1924.8 210V206H1920.8V210H1924.8ZM1924.8 330V334H1928.8V330H1924.8ZM1899.6 330H1895.6V334H1899.6V330ZM1899.6 184.6V180.6H1895.6V184.6H1899.6ZM2001.8 285.6H1943.4V293.6H2001.8V285.6ZM1947.4 289.6V265H1939.4V289.6H1947.4ZM1943.4 269H2001.8V261H1943.4V269ZM2001.8 269C2011.55 269 2019.74 265.914 2025.5 260.186C2031.25 254.461 2034.2 246.474 2034.2 237.4H2026.2C2026.2 244.726 2023.85 250.539 2019.85 254.514C2015.86 258.486 2009.85 261 2001.8 261V269ZM2034.2 237.4C2034.2 228.144 2031.26 220.181 2025.47 214.535C2019.68 208.9 2011.49 206 2001.8 206V214C2009.91 214 2015.92 216.4 2019.88 220.265C2023.84 224.119 2026.2 229.856 2026.2 237.4H2034.2ZM2001.8 206H1924.8V214H2001.8V206ZM1920.8 210V330H1928.8V210H1920.8ZM1924.8 326H1899.6V334H1924.8V326ZM1903.6 330V184.6H1895.6V330H1903.6ZM1899.6 188.6H2001.8V180.6H1899.6V188.6ZM2001.8 188.6C2017.79 188.6 2029.99 193.392 2038.18 201.515C2046.37 209.636 2051 221.528 2051 236.6H2059C2059 219.872 2053.83 205.764 2043.82 195.835C2033.81 185.908 2019.41 180.6 2001.8 180.6V188.6ZM2051 236.6C2051 251.466 2046.37 263.642 2038.14 272.081C2029.92 280.505 2017.72 285.6 2001.8 285.6V293.6C2019.48 293.6 2033.88 287.895 2043.86 277.669C2053.83 267.458 2059 253.134 2059 236.6H2051ZM2244.04 330V334H2253.63L2246.88 327.184L2244.04 330ZM2208.04 330L2205.08 332.694L2206.27 334H2208.04V330ZM2171.24 289.6L2174.19 286.906L2173 285.6H2171.24V289.6ZM2116.84 289.6H2112.84V293.6H2116.84V289.6ZM2116.84 267.2V263.2H2112.84V267.2H2116.84ZM2098.24 210V206H2094.24V210H2098.24ZM2098.24 330V334H2102.24V330H2098.24ZM2073.04 330H2069.04V334H2073.04V330ZM2073.04 184.6V180.6H2069.04V184.6H2073.04ZM2200.24 285.8L2198.81 282.065L2193.08 284.258L2197.4 288.616L2200.24 285.8ZM2244.04 326H2208.04V334H2244.04V326ZM2210.99 327.306L2174.19 286.906L2168.28 292.294L2205.08 332.694L2210.99 327.306ZM2171.24 285.6H2116.84V293.6H2171.24V285.6ZM2120.84 289.6V267.2H2112.84V289.6H2120.84ZM2116.84 271.2H2177.44V263.2H2116.84V271.2ZM2177.44 271.2C2187.3 271.2 2195.43 268.366 2201.07 262.396C2206.67 256.465 2209.24 248.037 2209.24 238H2201.24C2201.24 246.763 2199 252.935 2195.25 256.904C2191.54 260.834 2185.78 263.2 2177.44 263.2V271.2ZM2209.24 238C2209.24 227.877 2206.42 219.704 2200.65 214.084C2194.9 208.483 2186.81 206 2177.44 206V214C2185.47 214 2191.27 216.117 2195.07 219.816C2198.85 223.496 2201.24 229.323 2201.24 238H2209.24ZM2177.44 206H2098.24V214H2177.44V206ZM2094.24 210V330H2102.24V210H2094.24ZM2098.24 326H2073.04V334H2098.24V326ZM2077.04 330V184.6H2069.04V330H2077.04ZM2073.04 188.6H2177.44V180.6H2073.04V188.6ZM2177.44 188.6C2193.2 188.6 2205.29 193.47 2213.44 201.755C2221.6 210.05 2226.24 222.206 2226.24 237.6H2234.24C2234.24 220.594 2229.08 206.25 2219.14 196.145C2209.19 186.03 2194.88 180.6 2177.44 180.6V188.6ZM2226.24 237.6C2226.24 260.202 2215.83 275.545 2198.81 282.065L2201.67 289.535C2222.24 281.655 2234.24 262.998 2234.24 237.6H2226.24ZM2197.4 288.616L2241.2 332.816L2246.88 327.184L2203.08 282.984L2197.4 288.616ZM2355.7 326H2320.3V334H2355.7V326ZM2320.3 326C2282.11 326 2253.7 295.998 2253.7 255.8H2245.7C2245.7 300.002 2277.29 334 2320.3 334V326ZM2253.7 255.8C2253.7 235.366 2260.84 218.623 2272.59 206.993C2284.34 195.354 2300.95 188.6 2320.3 188.6V180.6C2299.05 180.6 2280.35 188.046 2266.96 201.307C2253.55 214.577 2245.7 233.434 2245.7 255.8H2253.7ZM2320.3 188.6H2355.7V180.6H2320.3V188.6ZM2355.7 188.6C2375.75 188.6 2392.5 195.508 2404.22 207.206C2415.94 218.903 2422.9 235.647 2422.9 255.8H2430.9C2430.9 233.753 2423.25 214.897 2409.87 201.544C2396.49 188.192 2377.64 180.6 2355.7 180.6V188.6ZM2422.9 255.8C2422.9 295.982 2394.7 326 2355.7 326V334C2399.49 334 2430.9 300.018 2430.9 255.8H2422.9ZM2320.3 308.6H2355.7V300.6H2320.3V308.6ZM2355.7 308.6C2384.87 308.6 2405.5 286.437 2405.5 257H2397.5C2397.5 282.363 2380.12 300.6 2355.7 300.6V308.6ZM2405.5 257C2405.5 227.495 2384.81 206 2355.7 206V214C2380.19 214 2397.5 231.705 2397.5 257H2405.5ZM2355.7 206H2320.3V214H2355.7V206ZM2320.3 206C2291.97 206 2271.1 227.307 2271.1 257H2279.1C2279.1 231.493 2296.62 214 2320.3 214V206ZM2271.1 257C2271.1 286.401 2291.68 308.6 2320.3 308.6V300.6C2296.51 300.6 2279.1 282.399 2279.1 257H2271.1ZM2439.65 330H2435.65V334H2439.65V330ZM2439.65 304.6V300.6H2435.65V304.6H2439.65ZM2540.65 184.6V180.6H2536.65V184.6H2540.65ZM2566.05 184.6H2570.05V180.6H2566.05V184.6ZM2492.85 326H2439.65V334H2492.85V326ZM2443.65 330V304.6H2435.65V330H2443.65ZM2439.65 308.6H2492.85V300.6H2439.65V308.6ZM2492.85 308.6C2510.2 308.6 2523.33 305.415 2532.12 297.797C2541.05 290.059 2544.65 278.498 2544.65 263.8H2536.65C2536.65 277.302 2533.35 286.141 2526.88 291.753C2520.27 297.485 2509.51 300.6 2492.85 300.6V308.6ZM2544.65 263.8V184.6H2536.65V263.8H2544.65ZM2540.65 188.6H2566.05V180.6H2540.65V188.6ZM2562.05 184.6V263.8H2570.05V184.6H2562.05ZM2562.05 263.8C2562.05 285.677 2556.57 300.935 2545.73 310.82C2534.82 320.778 2517.7 326 2492.85 326V334C2518.6 334 2538.09 328.622 2551.12 316.73C2564.24 304.765 2570.05 286.923 2570.05 263.8H2562.05ZM2719.05 330V334H2723.05V330H2719.05ZM2589.05 330H2585.05V334H2589.05V330ZM2589.05 184.6V180.6H2585.05V184.6H2589.05ZM2718.85 184.6H2722.85V180.6H2718.85V184.6ZM2718.85 210V214H2722.85V210H2718.85ZM2614.25 210V206H2610.25V210H2614.25ZM2614.25 304.6H2610.25V308.6H2614.25V304.6ZM2719.05 304.6H2723.05V300.6H2719.05V304.6ZM2713.45 266.8V270.8H2717.45V266.8H2713.45ZM2632.85 266.8H2628.85V270.8H2632.85V266.8ZM2632.85 245.4V241.4H2628.85V245.4H2632.85ZM2713.45 245.4H2717.45V241.4H2713.45V245.4ZM2719.05 326H2589.05V334H2719.05V326ZM2593.05 330V184.6H2585.05V330H2593.05ZM2589.05 188.6H2718.85V180.6H2589.05V188.6ZM2714.85 184.6V210H2722.85V184.6H2714.85ZM2718.85 206H2614.25V214H2718.85V206ZM2610.25 210V304.6H2618.25V210H2610.25ZM2614.25 308.6H2719.05V300.6H2614.25V308.6ZM2715.05 304.6V330H2723.05V304.6H2715.05ZM2713.45 262.8H2632.85V270.8H2713.45V262.8ZM2636.85 266.8V245.4H2628.85V266.8H2636.85ZM2632.85 249.4H2713.45V241.4H2632.85V249.4ZM2709.45 245.4V266.8H2717.45V245.4H2709.45ZM2886.01 330V334H2890.01V330H2886.01ZM2886.01 184.6H2890.01V180.6H2886.01V184.6ZM2886.01 210V214H2890.01V210H2886.01ZM2886.01 304.6H2890.01V300.6H2886.01V304.6ZM2886.01 326H2807.21V334H2886.01V326ZM2807.21 326C2769.02 326 2740.61 295.998 2740.61 255.8H2732.61C2732.61 300.002 2764.2 334 2807.21 334V326ZM2740.61 255.8C2740.61 235.366 2747.75 218.623 2759.5 206.993C2771.26 195.354 2787.86 188.6 2807.21 188.6V180.6C2785.96 180.6 2767.27 188.046 2753.87 201.307C2740.47 214.577 2732.61 233.434 2732.61 255.8H2740.61ZM2807.21 188.6H2886.01V180.6H2807.21V188.6ZM2882.01 184.6V210H2890.01V184.6H2882.01ZM2886.01 206H2807.21V214H2886.01V206ZM2807.21 206C2778.89 206 2758.01 227.307 2758.01 257H2766.01C2766.01 231.493 2783.53 214 2807.21 214V206ZM2758.01 257C2758.01 286.401 2778.6 308.6 2807.21 308.6V300.6C2783.42 300.6 2766.01 282.399 2766.01 257H2758.01ZM2807.21 308.6H2886.01V300.6H2807.21V308.6ZM2882.01 304.6V330H2890.01V304.6H2882.01ZM2978.63 330V334H2982.63V330H2978.63ZM2953.23 330H2949.23V334H2953.23V330ZM2953.23 210H2957.23V206H2953.23V210ZM2898.03 210H2894.03V214H2898.03V210ZM2898.03 184.6V180.6H2894.03V184.6H2898.03ZM3033.83 184.6H3037.83V180.6H3033.83V184.6ZM3033.83 210V214H3037.83V210H3033.83ZM2978.63 210V206H2974.63V210H2978.63ZM2978.63 326H2953.23V334H2978.63V326ZM2957.23 330V210H2949.23V330H2957.23ZM2953.23 206H2898.03V214H2953.23V206ZM2902.03 210V184.6H2894.03V210H2902.03ZM2898.03 188.6H3033.83V180.6H2898.03V188.6ZM3029.83 184.6V210H3037.83V184.6H3029.83ZM3033.83 206H2978.63V214H3033.83V206ZM2974.63 210V330H2982.63V210H2974.63Z" fill="url(#paint1_linear_431_2018)" mask="url(#path-3-outside-2_431_2018)"/>
</g>
<defs>
<linearGradient id="paint0_linear_431_2018" x1="0" y1="152" x2="1877" y2="152" gradientUnits="userSpaceOnUse">
<stop stop-color="#00B7FF"/>
<stop offset="0.504808" stop-color="#00DFD4"/>
<stop offset="1" stop-color="#00FF95"/>
</linearGradient>
<linearGradient id="paint1_linear_431_2018" x1="1887" y1="250" x2="3038" y2="250" gradientUnits="userSpaceOnUse">
<stop stop-color="#00FF95"/>
<stop offset="0.495192" stop-color="#00DFD4"/>
<stop offset="1" stop-color="#00B7FF"/>
</linearGradient>
<clipPath id="clip0_431_2018">
<rect width="3038" height="325" fill="white"/>
</clipPath>
</defs>
</svg>
