<svg width="20" height="20" viewBox="0 0 20 20" fill="none" xmlns="http://www.w3.org/2000/svg">
<path fill-rule="evenodd" clip-rule="evenodd" d="M10 0C4.477 0 0 4.477 0 10C0 15.523 4.477 20 10 20C15.523 20 20 15.523 20 10C20 4.477 15.523 0 10 0ZM4.987 12.789C4.79911 12.7292 4.59521 12.7457 4.41944 12.8351C4.24367 12.9245 4.11018 13.0795 4.04787 13.2666C3.98555 13.4537 3.99942 13.6578 4.08647 13.8347C4.17352 14.0117 4.32676 14.1472 4.513 14.212C4.696 14.27 4.858 14.54 5 14.778C5.07 14.893 5.134 15.001 5.195 15.074C5.422 15.347 5.732 15.641 6.18 15.831C6.49 15.963 6.838 16.031 7.226 16.033L7.221 16.49C7.21835 16.7552 7.32116 17.0106 7.50682 17.2C7.69248 17.3894 7.94578 17.4973 8.211 17.5C8.47622 17.5027 8.73162 17.3998 8.92104 17.2142C9.11045 17.0285 9.21835 16.7752 9.221 16.51L9.25 13.765V13.755C9.25 13.54 9.34 13.347 9.486 13.209C10.09 12.639 9.782 11.648 8.993 11.49C7.253 11.143 6.333 10.044 6.333 9.088C6.333 8.641 6.514 8.192 6.889 7.783C7.153 7.496 7.226 7.081 7.078 6.72C7.02239 6.57381 6.99163 6.41934 6.987 6.263C7.196 6.361 7.411 6.486 7.608 6.639C7.864 6.837 8.213 6.9 8.521 6.805C8.971 6.667 9.471 6.588 10 6.588C10.529 6.588 11.028 6.667 11.477 6.805C11.786 6.9 12.134 6.836 12.39 6.639C12.587 6.486 12.802 6.361 13.01 6.263C13.002 6.434 12.973 6.592 12.92 6.719C12.772 7.081 12.846 7.495 13.11 7.782C13.485 8.192 13.666 8.641 13.666 9.088C13.666 10.044 12.746 11.143 11.007 11.49C10.218 11.648 9.91 12.64 10.514 13.209C10.5882 13.2785 10.6475 13.3624 10.6881 13.4556C10.7286 13.5488 10.7497 13.6493 10.75 13.751L10.721 16.49C10.7183 16.7552 10.8212 17.0106 11.0068 17.2C11.1925 17.3894 11.4458 17.4973 11.711 17.5C11.9762 17.5027 12.2316 17.3998 12.421 17.2142C12.6104 17.0285 12.7183 16.7752 12.721 16.51L12.75 13.765V13.755C12.75 13.516 12.72 13.285 12.662 13.064C14.352 12.35 15.666 10.933 15.666 9.088C15.666 8.268 15.394 7.516 14.946 6.881C15.037 6.41 15.022 5.957 14.98 5.611C14.934 5.234 14.859 4.814 14.651 4.488C14.5495 4.32731 14.4065 4.19704 14.237 4.111C13.779 3.881 13.21 4.057 12.755 4.212C12.3455 4.35188 11.953 4.53738 11.585 4.765C11.065 4.64682 10.5333 4.58745 10 4.588C9.451 4.588 8.918 4.65 8.412 4.765C8.04397 4.53738 7.6515 4.35188 7.242 4.212C6.788 4.057 6.218 3.882 5.761 4.111C5.591 4.196 5.448 4.328 5.347 4.488C5.139 4.814 5.064 5.235 5.017 5.612C4.976 5.959 4.96 6.412 5.051 6.883C4.58855 7.52563 4.33761 8.29628 4.333 9.088C4.333 10.933 5.648 12.35 7.338 13.064C7.281 13.283 7.25 13.512 7.25 13.749L7.242 14.533C7.022 14.533 6.872 14.495 6.766 14.45C6.60085 14.3741 6.45694 14.2587 6.347 14.114C6.251 13.998 6.165 13.876 6.079 13.753C6.015 13.66 5.95 13.568 5.881 13.479C5.702 13.247 5.424 12.934 4.987 12.789Z" fill="white"/>
</svg>
