<svg width="20" height="20" viewBox="0 0 20 20" fill="none" xmlns="http://www.w3.org/2000/svg">
<path fill-rule="evenodd" clip-rule="evenodd" d="M10 20C15.523 20 20 15.523 20 10C20 4.477 15.523 0 10 0C4.477 0 0 4.477 0 10C0 15.523 4.477 20 10 20ZM9.995 14.242C10.1825 14.0545 10.2878 13.8002 10.2878 13.535C10.2878 13.2698 10.1825 13.0155 9.995 12.828L8.168 11H14.244C14.5092 11 14.7636 10.8946 14.9511 10.7071C15.1386 10.5196 15.244 10.2652 15.244 10C15.244 9.73478 15.1386 9.48043 14.9511 9.29289C14.7636 9.10536 14.5092 9 14.244 9H8.168L9.997 7.171C10.1845 6.98336 10.2898 6.72892 10.2897 6.46365C10.2896 6.19838 10.1841 5.94401 9.9965 5.7565C9.80886 5.56899 9.55442 5.4637 9.28915 5.4638C9.02388 5.46389 8.76951 5.56936 8.582 5.757L5.047 9.293C4.85953 9.48053 4.75421 9.73484 4.75421 10C4.75421 10.2652 4.85953 10.5195 5.047 10.707L8.582 14.242C8.67487 14.335 8.78516 14.4087 8.90656 14.4591C9.02796 14.5094 9.15808 14.5353 9.2895 14.5353C9.42092 14.5353 9.55104 14.5094 9.67244 14.4591C9.79384 14.4087 9.90413 14.335 9.997 14.242H9.995Z" fill="white"/>
</svg>
