<svg width="219" height="232" viewBox="0 0 219 232" fill="none" xmlns="http://www.w3.org/2000/svg">
<path fill-rule="evenodd" clip-rule="evenodd" d="M116.775 0.155082L114.38 0.104301C106.659 -0.150338 98.8221 -0.0741656 91.3177 1.9168L88.3802 3.1043C78.9791 6.69463 71.6243 11.6497 67.3802 21.1043C66.5955 26.8218 68.3115 30.9085 71.6302 35.4793C77.4529 42.0013 87.7851 46.5865 96.3451 47.9012C113.656 49.0596 129.886 48.7994 144.38 38.1043C148.996 33.6839 151.02 29.5315 151.568 23.1824C151.429 21.648 151.338 20.6373 151.033 19.6963C150.443 17.8814 149.056 16.3255 144.994 11.7684C137.969 4.52251 126.715 0.717094 116.775 0.155082ZM197.38 42.1043C193.185 38.4114 189.166 35.1282 183.88 33.1668C175.743 30.836 169.662 31.271 163.38 37.1043C161.772 39.1114 160.737 40.4022 160.084 41.8633C158.907 44.4969 158.969 47.6841 159.142 56.616C160.166 71.6133 167.295 86.1439 178.318 96.327L180.38 98.1043C185.917 102.998 191.033 106.643 198.38 108.104C204.339 108.489 208.262 107.874 212.884 103.874C217.672 98.211 218.851 90.6863 218.619 83.491C217.165 68.929 210.122 53.5965 199.22 43.659L197.38 42.1043ZM59.3802 45.1043C57.6875 40.0262 54.9878 36.2117 50.5677 33.1668C43.4803 30.8045 37.0043 31.9339 30.3802 35.1043C15.6246 44.3106 6.35497 59.1111 1.25133 75.409C-0.899178 84.5323 -0.535653 93.9676 4.38024 102.104C8.27282 106.275 11.234 107.922 16.9584 108.229C29.306 107.592 37.4475 99.6983 45.4171 91.001C56.7357 77.949 60.4703 62.021 59.3802 45.1043ZM38.3802 133.104C34.7692 129.86 31.3188 126.943 26.8334 125.003C21.6509 123.322 15.5144 121.537 10.3802 124.104C4.54272 128.038 2.10485 132.284 0.380241 139.104C-1.56556 154.058 4.95995 169.066 13.6927 180.917C20.4441 189.009 29.1555 198.11 40.1263 199.436C46.5351 199.539 50.608 198.644 55.3802 194.104C59.3998 188.455 59.9986 183.427 59.9186 176.52C59.2006 160.794 52.0111 145.552 40.4388 134.882L38.3802 133.104ZM211.38 126.104C216.192 131.054 218.524 136.283 218.818 143.104C218.239 161.455 209.202 177.998 196.197 190.538C189.25 196.528 181.784 199.645 172.525 199.425C168.226 198.783 165.505 196.309 162.63 193.229C157.831 185.071 158.111 174.899 160.29 165.921C164.897 149.356 175.143 134.792 190.005 125.792C197.174 122.208 204.454 121.64 211.38 126.104ZM109.255 182.917L111.822 182.88C123.787 182.852 137.123 185.989 145.974 194.514C148.89 197.811 151.215 200.741 151.536 205.339C151.075 212.221 148.185 216.585 143.193 221.229C131.766 230.482 115.625 232.583 101.38 231.104C89.29 229.255 78.6473 225.774 70.7552 216.018C67.7548 211.842 66.5924 208.225 67.3802 203.104C72.0336 193.267 80.066 188.76 89.8256 184.866C96.2091 182.963 102.655 182.922 109.255 182.917Z" fill="url(#paint0_linear_430_2017)"/>
<defs>
<linearGradient id="paint0_linear_430_2017" x1="109.409" y1="0" x2="109.409" y2="231.535" gradientUnits="userSpaceOnUse">
<stop stop-color="#00B7FF"/>
<stop offset="0.504808" stop-color="#00DFD4"/>
<stop offset="1" stop-color="#00FF95"/>
</linearGradient>
</defs>
</svg>
